<mxfile host="app.diagrams.net" modified="2023-05-08T08:05:48.181Z" agent="Mozilla/5.0 (Windows NT 10.0; Win64; x64) AppleWebKit/537.36 (KHTML, like Gecko) Chrome/112.0.0.0 Safari/537.36" etag="743G-3DCwzO_jb1zqMWi" version="21.2.9" type="github">
  <diagram name="第 1 页" id="aj8Z5EvIzZqYySZwkbhp">
    <mxGraphModel dx="2620" dy="968" grid="1" gridSize="12" guides="1" tooltips="1" connect="1" arrows="1" fold="1" page="1" pageScale="1" pageWidth="827" pageHeight="1169" math="0" shadow="0">
      <root>
        <mxCell id="0" />
        <mxCell id="1" parent="0" />
        <mxCell id="4ekCMJddQyONrVooH3AT-3" value="&lt;p style=&quot;margin-left:0.0000pt;mso-para-margin-left:0.0000gd;mso-layout-grid-align:none;&#xa;punctuation-trim:leading;background:rgb(224,224,224);&quot; class=&quot;15&quot;&gt;&lt;span style=&quot;mso-spacerun:&#39;yes&#39;;font-family:&#39;Courier New&#39;;mso-fareast-font-family:宋体;&#xa;mso-bidi-font-family:&#39;Times New Roman&#39;;font-weight:normal;font-size:9.0000pt;&#xa;mso-font-kerning:1.0000pt;&quot;&gt;bin/spark-submit \&lt;/span&gt;&lt;span style=&quot;mso-spacerun:&#39;yes&#39;;font-family:&#39;Courier New&#39;;mso-fareast-font-family:宋体;&#xa;mso-bidi-font-family:&#39;Times New Roman&#39;;font-weight:normal;font-size:9.0000pt;&#xa;mso-font-kerning:1.0000pt;&quot;&gt;&lt;/span&gt;&lt;/p&gt;&lt;p style=&quot;margin-left:0.0000pt;mso-para-margin-left:0.0000gd;mso-layout-grid-align:none;&#xa;punctuation-trim:leading;background:rgb(224,224,224);&quot; class=&quot;15&quot;&gt;&lt;span style=&quot;mso-spacerun:&#39;yes&#39;;font-family:&#39;Courier New&#39;;mso-fareast-font-family:宋体;&#xa;mso-bidi-font-family:&#39;Times New Roman&#39;;font-weight:normal;font-size:9.0000pt;&#xa;mso-font-kerning:1.0000pt;&quot;&gt;--class org.apache.spark.examples.SparkPi \&lt;/span&gt;&lt;span style=&quot;mso-spacerun:&#39;yes&#39;;font-family:&#39;Courier New&#39;;mso-fareast-font-family:宋体;&#xa;mso-bidi-font-family:&#39;Times New Roman&#39;;font-weight:normal;font-size:9.0000pt;&#xa;mso-font-kerning:1.0000pt;&quot;&gt;&lt;/span&gt;&lt;/p&gt;&lt;p style=&quot;margin-left:0.0000pt;mso-para-margin-left:0.0000gd;mso-layout-grid-align:none;&#xa;punctuation-trim:leading;background:rgb(224,224,224);&quot; class=&quot;15&quot;&gt;&lt;span style=&quot;mso-spacerun:&#39;yes&#39;;font-family:&#39;Courier New&#39;;mso-fareast-font-family:宋体;&#xa;mso-bidi-font-family:&#39;Times New Roman&#39;;font-weight:normal;font-size:9.0000pt;&#xa;mso-font-kerning:1.0000pt;&quot;&gt;--master &lt;/span&gt;&lt;span style=&quot;mso-spacerun:&#39;yes&#39;;font-family:&#39;Courier New&#39;;mso-fareast-font-family:宋体;&#xa;mso-bidi-font-family:&#39;Times New Roman&#39;;color:rgb(255,0,0);font-weight:normal;&#xa;font-size:9.0000pt;mso-font-kerning:1.0000pt;&quot;&gt;spark://&lt;/span&gt;&lt;span style=&quot;mso-spacerun:&#39;yes&#39;;font-family:宋体;mso-ascii-font-family:&#39;Courier New&#39;;&#xa;mso-hansi-font-family:&#39;Courier New&#39;;mso-bidi-font-family:&#39;Times New Roman&#39;;color:rgb(255,0,0);&#xa;font-weight:normal;font-size:9.0000pt;mso-font-kerning:1.0000pt;&quot;&gt;&lt;font face=&quot;Courier New&quot;&gt;linux1&lt;/font&gt;&lt;/span&gt;&lt;span style=&quot;mso-spacerun:&#39;yes&#39;;font-family:&#39;Courier New&#39;;mso-fareast-font-family:宋体;&#xa;mso-bidi-font-family:&#39;Times New Roman&#39;;color:rgb(255,0,0);font-weight:normal;&#xa;font-size:9.0000pt;mso-font-kerning:1.0000pt;&quot;&gt;:7077&lt;/span&gt;&lt;span style=&quot;mso-spacerun:&#39;yes&#39;;font-family:&#39;Courier New&#39;;mso-fareast-font-family:宋体;&#xa;mso-bidi-font-family:&#39;Times New Roman&#39;;font-weight:normal;font-size:9.0000pt;&#xa;mso-font-kerning:1.0000pt;&quot;&gt;&amp;nbsp;\&lt;/span&gt;&lt;span style=&quot;mso-spacerun:&#39;yes&#39;;font-family:&#39;Courier New&#39;;mso-fareast-font-family:宋体;&#xa;mso-bidi-font-family:&#39;Times New Roman&#39;;font-weight:normal;font-size:9.0000pt;&#xa;mso-font-kerning:1.0000pt;&quot;&gt;&lt;/span&gt;&lt;/p&gt;&lt;p style=&quot;margin-left:0.0000pt;mso-para-margin-left:0.0000gd;mso-layout-grid-align:none;&#xa;punctuation-trim:leading;background:rgb(224,224,224);&quot; class=&quot;15&quot;&gt;&lt;span style=&quot;mso-spacerun:&#39;yes&#39;;font-family:&#39;Courier New&#39;;mso-fareast-font-family:宋体;&#xa;mso-bidi-font-family:&#39;Times New Roman&#39;;font-weight:normal;font-size:9.0000pt;&#xa;mso-font-kerning:1.0000pt;&quot;&gt;./examples/jars/spark-examples_2.12-3.0.0.jar \&lt;/span&gt;&lt;span style=&quot;mso-spacerun:&#39;yes&#39;;font-family:&#39;Courier New&#39;;mso-fareast-font-family:宋体;&#xa;mso-bidi-font-family:&#39;Times New Roman&#39;;font-weight:normal;font-size:9.0000pt;&#xa;mso-font-kerning:1.0000pt;&quot;&gt;&lt;/span&gt;&lt;/p&gt;&lt;p style=&quot;margin-left:0.0000pt;mso-para-margin-left:0.0000gd;mso-layout-grid-align:none;&#xa;punctuation-trim:leading;background:rgb(224,224,224);&quot; class=&quot;15&quot;&gt;&lt;span style=&quot;mso-spacerun:&#39;yes&#39;;font-family:&#39;Courier New&#39;;mso-fareast-font-family:宋体;&#xa;mso-bidi-font-family:&#39;Times New Roman&#39;;font-weight:normal;font-size:9.0000pt;&#xa;mso-font-kerning:1.0000pt;&quot;&gt;10&lt;/span&gt;&lt;span style=&quot;mso-spacerun:&#39;yes&#39;;font-family:&#39;Courier New&#39;;mso-fareast-font-family:宋体;&#xa;mso-bidi-font-family:&#39;Times New Roman&#39;;font-weight:normal;font-size:9.0000pt;&#xa;mso-font-kerning:1.0000pt;&quot;&gt;&lt;/span&gt;&lt;/p&gt;" style="text;whiteSpace=wrap;html=1;" vertex="1" parent="1">
          <mxGeometry x="-792" y="216" width="372" height="158" as="geometry" />
        </mxCell>
        <mxCell id="4ekCMJddQyONrVooH3AT-4" value="" style="endArrow=classic;html=1;rounded=0;exitX=0.433;exitY=1.025;exitDx=0;exitDy=0;exitPerimeter=0;" edge="1" parent="1" source="4ekCMJddQyONrVooH3AT-3">
          <mxGeometry width="50" height="50" relative="1" as="geometry">
            <mxPoint x="-655" y="422" as="sourcePoint" />
            <mxPoint x="-631" y="480" as="targetPoint" />
          </mxGeometry>
        </mxCell>
        <mxCell id="4ekCMJddQyONrVooH3AT-7" value="SparkSubmit" style="rounded=0;whiteSpace=wrap;html=1;align=left;" vertex="1" parent="1">
          <mxGeometry x="-775" y="504" width="300" height="108" as="geometry" />
        </mxCell>
        <mxCell id="4ekCMJddQyONrVooH3AT-8" value="ClientCluster" style="rounded=0;whiteSpace=wrap;html=1;align=left;" vertex="1" parent="1">
          <mxGeometry x="-691" y="516" width="204" height="84" as="geometry" />
        </mxCell>
        <mxCell id="4ekCMJddQyONrVooH3AT-9" value="Client" style="rounded=0;whiteSpace=wrap;html=1;" vertex="1" parent="1">
          <mxGeometry x="-607" y="528" width="108" height="60" as="geometry" />
        </mxCell>
        <mxCell id="4ekCMJddQyONrVooH3AT-10" value="" style="endArrow=classic;html=1;rounded=0;exitX=1;exitY=0.5;exitDx=0;exitDy=0;" edge="1" parent="1" source="4ekCMJddQyONrVooH3AT-7" target="4ekCMJddQyONrVooH3AT-11">
          <mxGeometry width="50" height="50" relative="1" as="geometry">
            <mxPoint x="-475" y="566" as="sourcePoint" />
            <mxPoint x="-367" y="564" as="targetPoint" />
          </mxGeometry>
        </mxCell>
        <mxCell id="4ekCMJddQyONrVooH3AT-11" value="ResourceManage" style="rounded=0;whiteSpace=wrap;html=1;" vertex="1" parent="1">
          <mxGeometry x="-343" y="528" width="120" height="60" as="geometry" />
        </mxCell>
        <mxCell id="4ekCMJddQyONrVooH3AT-14" value="NameNode" style="rounded=0;whiteSpace=wrap;html=1;align=left;" vertex="1" parent="1">
          <mxGeometry x="-127" y="324" width="408" height="156" as="geometry" />
        </mxCell>
        <mxCell id="4ekCMJddQyONrVooH3AT-15" value="1.将程序提交到Yarn" style="text;html=1;align=center;verticalAlign=middle;resizable=0;points=[];autosize=1;strokeColor=none;fillColor=none;" vertex="1" parent="1">
          <mxGeometry x="-475" y="529" width="132" height="24" as="geometry" />
        </mxCell>
        <mxCell id="4ekCMJddQyONrVooH3AT-16" value="ApplicationMaster" style="rounded=0;whiteSpace=wrap;html=1;align=left;" vertex="1" parent="1">
          <mxGeometry x="-43" y="336" width="312" height="132" as="geometry" />
        </mxCell>
        <mxCell id="4ekCMJddQyONrVooH3AT-19" value="Driver(启动Driver进程后会执行自己程序的main方法，准备号SparkContext环境，但不会继续执行完，因为没有资源)" style="rounded=0;whiteSpace=wrap;html=1;" vertex="1" parent="1">
          <mxGeometry x="77" y="348" width="180" height="108" as="geometry" />
        </mxCell>
        <mxCell id="4ekCMJddQyONrVooH3AT-21" value="2.将程序分配到某个NameNode,并启动ApplicationMaster进程" style="text;html=1;align=center;verticalAlign=middle;resizable=0;points=[];autosize=1;strokeColor=none;fillColor=none;" vertex="1" parent="1">
          <mxGeometry x="-379" y="374" width="348" height="24" as="geometry" />
        </mxCell>
        <mxCell id="4ekCMJddQyONrVooH3AT-26" value="" style="endArrow=classic;html=1;rounded=0;entryX=0;entryY=0.5;entryDx=0;entryDy=0;" edge="1" parent="1" target="4ekCMJddQyONrVooH3AT-16">
          <mxGeometry width="50" height="50" relative="1" as="geometry">
            <mxPoint x="-295" y="528" as="sourcePoint" />
            <mxPoint x="-245" y="478" as="targetPoint" />
            <Array as="points">
              <mxPoint x="-295" y="402" />
            </Array>
          </mxGeometry>
        </mxCell>
        <mxCell id="4ekCMJddQyONrVooH3AT-27" value="" style="endArrow=classic;html=1;rounded=0;entryX=0;entryY=0.5;entryDx=0;entryDy=0;" edge="1" parent="1" source="4ekCMJddQyONrVooH3AT-16" target="4ekCMJddQyONrVooH3AT-19">
          <mxGeometry width="50" height="50" relative="1" as="geometry">
            <mxPoint x="17" y="398" as="sourcePoint" />
            <mxPoint x="67" y="348" as="targetPoint" />
          </mxGeometry>
        </mxCell>
        <mxCell id="4ekCMJddQyONrVooH3AT-28" value="3.启动Driveer线程" style="text;html=1;align=center;verticalAlign=middle;resizable=0;points=[];autosize=1;strokeColor=none;fillColor=none;" vertex="1" parent="1">
          <mxGeometry x="-19" y="374" width="120" height="24" as="geometry" />
        </mxCell>
        <mxCell id="4ekCMJddQyONrVooH3AT-29" value="" style="endArrow=classic;html=1;rounded=0;entryX=1;entryY=0;entryDx=0;entryDy=0;" edge="1" parent="1" target="4ekCMJddQyONrVooH3AT-11">
          <mxGeometry width="50" height="50" relative="1" as="geometry">
            <mxPoint x="16" y="424" as="sourcePoint" />
            <mxPoint x="66" y="374" as="targetPoint" />
          </mxGeometry>
        </mxCell>
        <mxCell id="4ekCMJddQyONrVooH3AT-30" value="4.向RM申请资源&amp;amp;注册ApplicationMaster" style="text;html=1;align=center;verticalAlign=middle;resizable=0;points=[];autosize=1;strokeColor=none;fillColor=none;" vertex="1" parent="1">
          <mxGeometry x="-251" y="493" width="240" height="24" as="geometry" />
        </mxCell>
        <mxCell id="4ekCMJddQyONrVooH3AT-32" value="NameNode" style="rounded=0;whiteSpace=wrap;html=1;align=left;" vertex="1" parent="1">
          <mxGeometry x="-131" y="636" width="412" height="168" as="geometry" />
        </mxCell>
        <mxCell id="4ekCMJddQyONrVooH3AT-33" value="" style="endArrow=classic;html=1;rounded=0;" edge="1" parent="1" target="4ekCMJddQyONrVooH3AT-19">
          <mxGeometry width="50" height="50" relative="1" as="geometry">
            <mxPoint x="-223" y="553" as="sourcePoint" />
            <mxPoint x="-173" y="503" as="targetPoint" />
          </mxGeometry>
        </mxCell>
        <mxCell id="4ekCMJddQyONrVooH3AT-34" value="5.返回可供选的资源列表选择合适的资源" style="text;html=1;align=center;verticalAlign=middle;resizable=0;points=[];autosize=1;strokeColor=none;fillColor=none;" vertex="1" parent="1">
          <mxGeometry x="-227" y="528" width="240" height="24" as="geometry" />
        </mxCell>
        <mxCell id="4ekCMJddQyONrVooH3AT-36" value="ExecutorBackend" style="rounded=0;whiteSpace=wrap;html=1;align=left;" vertex="1" parent="1">
          <mxGeometry x="-55" y="648" width="324" height="144" as="geometry" />
        </mxCell>
        <mxCell id="4ekCMJddQyONrVooH3AT-37" value="Executor(计算对象)" style="rounded=0;whiteSpace=wrap;html=1;" vertex="1" parent="1">
          <mxGeometry x="77" y="660" width="180" height="120" as="geometry" />
        </mxCell>
        <mxCell id="4ekCMJddQyONrVooH3AT-38" value="6.启动ExecutorBackend进程" style="text;html=1;align=center;verticalAlign=middle;resizable=0;points=[];autosize=1;strokeColor=none;fillColor=none;" vertex="1" parent="1">
          <mxGeometry x="389" y="540" width="180" height="24" as="geometry" />
        </mxCell>
        <mxCell id="4ekCMJddQyONrVooH3AT-39" value="" style="endArrow=classic;html=1;rounded=0;" edge="1" parent="1" target="4ekCMJddQyONrVooH3AT-37">
          <mxGeometry width="50" height="50" relative="1" as="geometry">
            <mxPoint x="257" y="411" as="sourcePoint" />
            <mxPoint x="307" y="361" as="targetPoint" />
            <Array as="points">
              <mxPoint x="389" y="480" />
              <mxPoint x="389" y="648" />
            </Array>
          </mxGeometry>
        </mxCell>
        <mxCell id="4ekCMJddQyONrVooH3AT-40" value="" style="endArrow=classic;html=1;rounded=0;entryX=0.939;entryY=1.037;entryDx=0;entryDy=0;entryPerimeter=0;" edge="1" parent="1" target="4ekCMJddQyONrVooH3AT-19">
          <mxGeometry width="50" height="50" relative="1" as="geometry">
            <mxPoint x="245" y="662" as="sourcePoint" />
            <mxPoint x="295" y="612" as="targetPoint" />
          </mxGeometry>
        </mxCell>
        <mxCell id="4ekCMJddQyONrVooH3AT-41" value="7.注册Executor" style="text;html=1;align=center;verticalAlign=middle;resizable=0;points=[];autosize=1;strokeColor=none;fillColor=none;" vertex="1" parent="1">
          <mxGeometry x="245" y="546" width="108" height="24" as="geometry" />
        </mxCell>
        <mxCell id="4ekCMJddQyONrVooH3AT-42" value="" style="endArrow=classic;html=1;rounded=0;" edge="1" parent="1">
          <mxGeometry width="50" height="50" relative="1" as="geometry">
            <mxPoint x="-120" y="434" as="sourcePoint" />
            <mxPoint x="-70" y="384" as="targetPoint" />
          </mxGeometry>
        </mxCell>
        <mxCell id="4ekCMJddQyONrVooH3AT-43" value="" style="endArrow=classic;html=1;rounded=0;" edge="1" parent="1">
          <mxGeometry width="50" height="50" relative="1" as="geometry">
            <mxPoint x="180" y="348" as="sourcePoint" />
            <mxPoint x="180" y="252" as="targetPoint" />
          </mxGeometry>
        </mxCell>
        <mxCell id="4ekCMJddQyONrVooH3AT-46" value="" style="rounded=0;whiteSpace=wrap;html=1;" vertex="1" parent="1">
          <mxGeometry x="-84" y="36" width="564" height="204" as="geometry" />
        </mxCell>
        <mxCell id="4ekCMJddQyONrVooH3AT-48" value="RDD" style="rounded=0;whiteSpace=wrap;html=1;" vertex="1" parent="1">
          <mxGeometry x="-60" y="48" width="84" height="180" as="geometry" />
        </mxCell>
        <mxCell id="4ekCMJddQyONrVooH3AT-49" value="RDD" style="rounded=0;whiteSpace=wrap;html=1;" vertex="1" parent="1">
          <mxGeometry x="53" y="48" width="84" height="180" as="geometry" />
        </mxCell>
        <mxCell id="4ekCMJddQyONrVooH3AT-50" value="" style="endArrow=classic;html=1;rounded=0;entryX=-0.071;entryY=0.544;entryDx=0;entryDy=0;entryPerimeter=0;" edge="1" parent="1" target="4ekCMJddQyONrVooH3AT-49">
          <mxGeometry width="50" height="50" relative="1" as="geometry">
            <mxPoint x="24" y="146" as="sourcePoint" />
            <mxPoint x="74" y="96" as="targetPoint" />
          </mxGeometry>
        </mxCell>
        <mxCell id="4ekCMJddQyONrVooH3AT-51" value="Task" style="rounded=0;whiteSpace=wrap;html=1;" vertex="1" parent="1">
          <mxGeometry x="173" y="84" width="84" height="48" as="geometry" />
        </mxCell>
        <mxCell id="4ekCMJddQyONrVooH3AT-52" value="Task" style="rounded=0;whiteSpace=wrap;html=1;" vertex="1" parent="1">
          <mxGeometry x="173" y="144" width="84" height="48" as="geometry" />
        </mxCell>
        <mxCell id="4ekCMJddQyONrVooH3AT-54" value="" style="endArrow=classic;html=1;rounded=0;entryX=0;entryY=0;entryDx=0;entryDy=0;" edge="1" parent="1" target="4ekCMJddQyONrVooH3AT-52">
          <mxGeometry width="50" height="50" relative="1" as="geometry">
            <mxPoint x="137" y="146" as="sourcePoint" />
            <mxPoint x="187" y="96" as="targetPoint" />
          </mxGeometry>
        </mxCell>
        <mxCell id="4ekCMJddQyONrVooH3AT-56" value="TaskPool" style="rounded=0;whiteSpace=wrap;html=1;" vertex="1" parent="1">
          <mxGeometry x="312" y="48" width="132" height="180" as="geometry" />
        </mxCell>
        <mxCell id="4ekCMJddQyONrVooH3AT-57" value="Task" style="rounded=0;whiteSpace=wrap;html=1;" vertex="1" parent="1">
          <mxGeometry x="336" y="60" width="84" height="48" as="geometry" />
        </mxCell>
        <mxCell id="4ekCMJddQyONrVooH3AT-58" value="Task" style="rounded=0;whiteSpace=wrap;html=1;" vertex="1" parent="1">
          <mxGeometry x="336" y="168" width="84" height="48" as="geometry" />
        </mxCell>
        <mxCell id="4ekCMJddQyONrVooH3AT-60" value="" style="endArrow=classic;html=1;rounded=0;entryX=0;entryY=0.5;entryDx=0;entryDy=0;" edge="1" parent="1" target="4ekCMJddQyONrVooH3AT-56">
          <mxGeometry width="50" height="50" relative="1" as="geometry">
            <mxPoint x="262" y="144" as="sourcePoint" />
            <mxPoint x="312" y="94" as="targetPoint" />
          </mxGeometry>
        </mxCell>
        <mxCell id="4ekCMJddQyONrVooH3AT-61" value="" style="endArrow=classic;html=1;rounded=0;" edge="1" parent="1">
          <mxGeometry width="50" height="50" relative="1" as="geometry">
            <mxPoint x="101" y="806" as="sourcePoint" />
            <mxPoint x="101" y="888" as="targetPoint" />
          </mxGeometry>
        </mxCell>
        <mxCell id="4ekCMJddQyONrVooH3AT-63" value="" style="rounded=0;whiteSpace=wrap;html=1;" vertex="1" parent="1">
          <mxGeometry x="-118.5" y="900" width="427" height="192" as="geometry" />
        </mxCell>
        <mxCell id="4ekCMJddQyONrVooH3AT-64" value="Thread" style="rounded=0;whiteSpace=wrap;html=1;" vertex="1" parent="1">
          <mxGeometry x="-90" y="948" width="71" height="48" as="geometry" />
        </mxCell>
        <mxCell id="4ekCMJddQyONrVooH3AT-65" value="Thread" style="rounded=0;whiteSpace=wrap;html=1;" vertex="1" parent="1">
          <mxGeometry y="948" width="71" height="48" as="geometry" />
        </mxCell>
        <mxCell id="4ekCMJddQyONrVooH3AT-66" value="Thread" style="rounded=0;whiteSpace=wrap;html=1;" vertex="1" parent="1">
          <mxGeometry x="84" y="948" width="71" height="48" as="geometry" />
        </mxCell>
        <mxCell id="4ekCMJddQyONrVooH3AT-67" value="Thread" style="rounded=0;whiteSpace=wrap;html=1;" vertex="1" parent="1">
          <mxGeometry x="173" y="948" width="71" height="48" as="geometry" />
        </mxCell>
        <mxCell id="4ekCMJddQyONrVooH3AT-68" value="" style="endArrow=classic;html=1;rounded=0;entryX=1.005;entryY=0.469;entryDx=0;entryDy=0;entryPerimeter=0;" edge="1" parent="1" target="4ekCMJddQyONrVooH3AT-63">
          <mxGeometry width="50" height="50" relative="1" as="geometry">
            <mxPoint x="444" y="144" as="sourcePoint" />
            <mxPoint x="720" y="144" as="targetPoint" />
            <Array as="points">
              <mxPoint x="672" y="324" />
              <mxPoint x="672" y="636" />
            </Array>
          </mxGeometry>
        </mxCell>
        <mxCell id="4ekCMJddQyONrVooH3AT-69" value="8. Driver调度任务，将线程池中的任务调度到指定的Executor中执行" style="text;html=1;align=center;verticalAlign=middle;resizable=0;points=[];autosize=1;strokeColor=none;fillColor=none;" vertex="1" parent="1">
          <mxGeometry x="672" y="468" width="384" height="24" as="geometry" />
        </mxCell>
        <mxCell id="4ekCMJddQyONrVooH3AT-70" value="Task" style="rounded=0;whiteSpace=wrap;html=1;" vertex="1" parent="1">
          <mxGeometry x="684" y="420" width="72" height="36" as="geometry" />
        </mxCell>
        <mxCell id="4ekCMJddQyONrVooH3AT-71" value="Task" style="rounded=0;whiteSpace=wrap;html=1;" vertex="1" parent="1">
          <mxGeometry x="-91" y="984" width="72" height="36" as="geometry" />
        </mxCell>
        <mxCell id="4ekCMJddQyONrVooH3AT-72" value="Task" style="rounded=0;whiteSpace=wrap;html=1;" vertex="1" parent="1">
          <mxGeometry x="-1" y="984" width="72" height="36" as="geometry" />
        </mxCell>
        <mxCell id="4ekCMJddQyONrVooH3AT-74" value="Task" style="rounded=0;whiteSpace=wrap;html=1;" vertex="1" parent="1">
          <mxGeometry x="84" y="984" width="72" height="36" as="geometry" />
        </mxCell>
        <mxCell id="4ekCMJddQyONrVooH3AT-75" value="Task" style="rounded=0;whiteSpace=wrap;html=1;" vertex="1" parent="1">
          <mxGeometry x="172" y="984" width="72" height="36" as="geometry" />
        </mxCell>
        <mxCell id="4ekCMJddQyONrVooH3AT-76" value="Executor线程池，允许多任务并行执行" style="rounded=0;whiteSpace=wrap;html=1;" vertex="1" parent="1">
          <mxGeometry x="-67" y="1032" width="295" height="48" as="geometry" />
        </mxCell>
      </root>
    </mxGraphModel>
  </diagram>
</mxfile>
